<svg xmlns="http://www.w3.org/2000/svg" fill="none" viewBox="0 0 554 155">
  <path fill="#8AC795"
        d="M96 12H0v14.813L48.486 79.5 0 132.187V147h96v-12.273H13.632L64.456 79.5 13.632 24.273H96V12Z"/>
  <path fill="#1B251D"
        d="M184.31 111.495c-5.06 0-10.657-.92-16.79-2.76l1.955-8.74c5.367 1.533 10.158 2.3 14.375 2.3 5.06 0 8.74-1.418 11.04-4.255 2.3-2.913 3.488-7.667 3.565-14.26H179.25l-.69-8.97h19.78c-.23-10.887-5.06-16.33-14.49-16.33-3.757 0-8.548.767-14.375 2.3l-1.955-8.74c5.903-1.84 11.5-2.76 16.79-2.76 7.59 0 13.608 2.147 18.055 6.44 4.447 4.293 6.67 10.772 6.67 19.435v10.35c0 8.663-2.223 15.18-6.67 19.55-4.447 4.293-10.465 6.44-18.055 6.44ZM224.534 110V50.775h23.115c5.98 0 10.657 1.38 14.03 4.14 3.373 2.76 5.06 6.517 5.06 11.27 0 5.673-2.607 9.89-7.82 12.65 3.373 1.227 5.865 3.143 7.475 5.75 1.687 2.53 2.53 5.367 2.53 8.51 0 4.83-1.917 8.855-5.75 12.075-3.833 3.22-9.238 4.83-16.215 4.83h-22.425Zm10.695-8.855h10.925c3.833 0 6.708-.767 8.625-2.3 1.993-1.61 2.99-3.757 2.99-6.44 0-2.76-.92-4.945-2.76-6.555-1.84-1.687-4.638-2.53-8.395-2.53h-11.385v17.825Zm0-26.105h10.235c3.297 0 5.865-.728 7.705-2.185 1.917-1.457 2.875-3.488 2.875-6.095 0-5.213-3.335-7.82-10.005-7.82h-10.81v16.1Zm48.832 59.225v-83.49h8.625l1.38 5.06c3.526-4.37 8.663-6.555 15.41-6.555 6.056 0 11.155 2.223 15.295 6.67 4.14 4.37 6.21 10.388 6.21 18.055v12.65c0 8.05-2.185 14.222-6.555 18.515-4.37 4.217-9.775 6.325-16.215 6.325-4.524 0-9.047-1.38-13.57-4.14v26.91h-10.58Zm10.58-36.225c4.676 2.76 8.931 4.14 12.765 4.14 3.833 0 6.938-1.265 9.315-3.795 2.376-2.607 3.565-6.708 3.565-12.305v-11.5c0-5.29-1.189-9.277-3.565-11.96-2.3-2.683-5.367-4.025-9.2-4.025-3.757 0-6.862 1.112-9.315 3.335-2.377 2.223-3.565 5.52-3.565 9.89v26.22ZM346.727 110V50.775h10.58v30.82c0 4.063-.115 7.667-.345 10.81l27.025-41.63h8.855V110h-10.58V79.87c0-3.067.153-6.747.46-11.04L355.812 110h-9.085Zm64.014 0V50.775h10.58v25.76l13.11-4.37c1.61-.613 2.836-1.457 3.68-2.53.843-1.073 1.533-2.607 2.07-4.6l3.795-14.26h10.465l-4.485 16.215c-1.074 3.833-2.262 6.593-3.565 8.28-1.227 1.687-3.029 3.067-5.405 4.14L456.971 110h-11.5l-13.57-27.025-10.58 3.68V110h-10.58Zm74.731 1.495c-6.134 0-11.04-1.648-14.72-4.945-3.68-3.297-5.52-8.012-5.52-14.145 0-5.75 1.955-10.197 5.865-13.34 3.986-3.143 9.238-4.715 15.755-4.715h11.5v-3.105c0-4.063-.997-7.168-2.99-9.315-1.917-2.147-4.715-3.22-8.395-3.22-4.447 0-9.66.882-15.64 2.645l-2.185-8.855c6.593-2.147 12.535-3.22 17.825-3.22 6.746 0 12.075 1.955 15.985 5.865 3.986 3.91 5.98 9.277 5.98 16.1V110h-8.855l-1.035-3.91c-3.45 3.603-7.974 5.405-13.57 5.405Zm1.725-9.315c3.296 0 5.98-.843 8.05-2.53 2.07-1.763 3.105-3.91 3.105-6.44V82.63h-11.5c-3.604 0-6.287.882-8.05 2.645-1.764 1.763-2.645 4.063-2.645 6.9 0 3.143.958 5.597 2.875 7.36 1.916 1.763 4.638 2.645 8.165 2.645Z"/>
  <path fill="#C8D8C9" d="M127.111 0h4.031v155h-4.031z"/>
</svg>
