<?xml version="1.0" standalone="no"?>
<!DOCTYPE svg PUBLIC "-//W3C//DTD SVG 20010904//EN"
 "http://www.w3.org/TR/2001/REC-SVG-20010904/DTD/svg10.dtd">
<svg version="1.0" xmlns="http://www.w3.org/2000/svg"
 width="1080.000000pt" height="1080.000000pt" viewBox="0 0 1080.000000 1080.000000"
 preserveAspectRatio="xMidYMid meet">
<metadata>
Created by potrace 1.14, written by Peter Selinger 2001-2017
</metadata>
<g transform="translate(0.000000,1080.000000) scale(0.100000,-0.100000)"
fill="#000000" stroke="none">
<path d="M1560 10207 l0 -592 55 -60 c30 -33 55 -64 55 -68 0 -5 5 -5 10 -2 6
3 10 2 10 -3 0 -5 12 -22 28 -39 92 -99 157 -170 237 -257 50 -54 106 -116
125 -136 34 -37 179 -194 230 -250 14 -15 68 -73 120 -130 52 -57 106 -115
120 -130 14 -15 62 -68 106 -116 45 -49 94 -102 109 -119 46 -50 300 -326 365
-396 14 -15 59 -64 100 -109 41 -45 93 -101 115 -125 22 -23 76 -82 120 -131
44 -48 100 -109 125 -134 25 -26 77 -83 115 -125 39 -43 86 -95 105 -115 19
-20 69 -74 110 -120 41 -45 91 -99 110 -120 19 -20 73 -78 120 -129 47 -51
101 -110 120 -131 19 -20 73 -79 120 -130 47 -51 96 -105 110 -120 14 -15 66
-71 115 -125 50 -54 108 -118 130 -141 22 -24 76 -82 120 -130 44 -48 96 -104
115 -125 19 -20 69 -75 111 -121 42 -45 89 -97 105 -114 16 -18 51 -56 78 -85
27 -30 73 -79 102 -111 58 -61 64 -75 37 -99 -15 -13 -110 -115 -211 -227 -14
-15 -68 -74 -122 -132 -54 -58 -115 -124 -136 -148 -22 -24 -67 -73 -101 -109
-35 -36 -63 -67 -63 -69 0 -2 -15 -18 -32 -37 -38 -38 -130 -137 -238 -256
-41 -46 -93 -102 -115 -126 -41 -44 -184 -199 -249 -270 -20 -22 -36 -43 -36
-47 0 -5 -7 -8 -15 -8 -8 0 -15 -3 -15 -7 0 -10 -68 -85 -280 -314 -19 -20
-51 -55 -70 -76 -19 -21 -69 -75 -110 -119 -41 -44 -106 -116 -145 -158 -38
-43 -88 -97 -110 -120 -35 -38 -170 -183 -248 -270 -31 -33 -185 -201 -227
-246 -40 -43 -211 -229 -255 -277 -22 -24 -65 -71 -95 -103 -30 -32 -89 -96
-130 -141 -41 -45 -93 -101 -115 -125 -22 -24 -67 -73 -100 -109 -33 -37 -78
-86 -100 -109 -22 -23 -78 -85 -125 -136 -47 -51 -98 -108 -115 -125 -33 -35
-188 -203 -253 -275 l-41 -45 -1 -592 0 -593 3840 0 3840 0 0 490 c0 385 -3
490 -12 491 -7 0 -1488 1 -3290 1 -1803 0 -3278 3 -3278 7 0 3 29 36 63 72 34
37 100 108 147 159 47 51 99 107 115 125 17 18 73 79 125 136 52 57 111 120
130 140 19 21 67 73 105 115 39 43 89 98 113 122 23 24 42 45 42 47 0 2 21 25
48 53 40 42 88 93 237 257 35 38 210 227 251 271 17 18 66 72 110 120 43 48
90 99 104 114 14 15 63 69 110 119 47 51 103 112 125 135 22 24 62 67 89 97
73 81 277 303 358 390 24 25 77 83 118 128 41 46 91 100 110 120 19 21 80 86
135 146 55 60 118 128 140 151 22 24 61 67 87 96 26 29 71 78 100 109 29 31
89 96 133 144 44 48 94 102 110 120 17 17 53 57 80 87 28 30 95 103 151 164
56 60 112 121 125 135 13 15 62 68 109 119 47 51 96 104 109 119 13 14 67 73
120 130 133 143 151 164 151 171 0 7 -9 17 -109 126 -31 33 -94 102 -141 153
-47 51 -101 110 -120 130 -19 21 -78 85 -130 142 -52 57 -118 127 -146 156
-28 29 -49 53 -47 53 2 0 -14 17 -35 39 -20 21 -71 76 -113 122 -43 46 -92
100 -110 120 -19 20 -59 63 -89 96 -30 33 -96 104 -146 159 -51 54 -104 113
-119 129 -26 30 -206 224 -235 255 -8 9 -58 63 -110 120 -52 58 -106 117 -120
131 -14 14 -56 61 -95 103 -38 43 -86 94 -105 115 -38 40 -110 118 -240 260
-47 51 -101 110 -120 130 -19 20 -73 79 -120 130 -47 52 -101 111 -120 131
-85 91 -220 238 -251 273 -19 22 -54 60 -79 86 -40 42 -168 181 -240 261 -14
15 -68 74 -120 130 -107 116 -113 122 -230 250 -47 51 -98 107 -115 124 -43
46 -198 215 -230 251 -15 17 -68 74 -119 128 -50 55 -92 102 -94 107 -2 4
1478 7 3288 6 l3290 -1 0 493 0 492 -3840 0 -3840 0 0 -593z"/>
</g>
</svg>
